<?xml version="1.0" encoding="iso-8859-1"?>
<!-- Generator: Adobe Illustrator 19.0.0, SVG Export Plug-In . SVG Version: 6.00 Build 0)  -->
<svg version="1.1" id="Layer_1" xmlns="http://www.w3.org/2000/svg" xmlns:xlink="http://www.w3.org/1999/xlink" x="0px" y="0px"
	 viewBox="0 0 512 512" style="enable-background:new 0 0 512 512;" xml:space="preserve">
<g>
	<g>
		<g>
			<path d="M499.833,178.083c-1.417-4.417-5.521-7.417-10.167-7.417H348.542c-3.813,0-7.354,2.042-9.25,5.354
				c-1.896,3.313-1.896,7.385,0.042,10.688L456.625,388c1.896,3.25,5.354,5.26,9.125,5.292c0.021,0,0.063,0,0.083,0
				c3.729,0,7.188-1.948,9.125-5.146C499.188,348.073,512,302.385,512,256C512,229.521,507.896,203.313,499.833,178.083z"/>
			<path d="M228.583,143.99c1.917,3.302,5.438,5.344,9.25,5.344h233.646c3.771,0,7.25-1.99,9.167-5.219
				c1.938-3.24,2-7.25,0.188-10.552c-35.542-65.177-97.458-111.646-169.875-127.5c-4.625-0.979-9.208,1.063-11.521,5.063
				l-70.833,122.188C226.688,136.615,226.688,140.688,228.583,143.99z"/>
			<path d="M376.375,292.667c-1.896-3.281-5.417-5.302-9.208-5.302c0,0,0,0-0.021,0c-3.792,0-7.292,2.031-9.208,5.313
				L240.25,495.646c-1.875,3.26-1.917,7.26-0.083,10.542c1.833,3.292,5.25,5.365,9,5.479l2.396,0.135
				C253.021,511.906,254.5,512,256,512c72.208,0,141.5-30.969,190.104-84.958c3.083-3.448,3.604-8.5,1.271-12.5L376.375,292.667z"/>
			<path d="M172.938,336.01c1.917-3.292,1.917-7.354,0.021-10.656L56.417,122.417c-1.875-3.26-5.333-5.292-9.083-5.354
				c-3.896-0.479-7.292,1.854-9.25,5.073C13.167,162.604,0,208.885,0,256c0,26.479,4.104,52.688,12.167,77.917
				c1.417,4.417,5.521,7.417,10.167,7.417h141.375C167.521,341.333,171.042,339.302,172.938,336.01z"/>
			<path d="M283.417,368.01c-1.917-3.302-5.438-5.344-9.25-5.344H40.521c-3.771,0-7.25,1.99-9.167,5.219
				c-1.938,3.24-2,7.25-0.188,10.552c35.542,65.177,97.458,111.646,169.875,127.5c0.771,0.167,1.542,0.25,2.292,0.25
				c3.75,0,7.292-1.979,9.229-5.313l70.833-122.188C285.313,375.385,285.313,371.313,283.417,368.01z"/>
			<path d="M136.125,218.375c1.896,3.302,5.417,5.344,9.229,5.354h0.021c3.813,0,7.313-2.021,9.229-5.313L271.75,16.354
				c1.875-3.26,1.917-7.26,0.083-10.542c-1.833-3.292-5.25-5.365-9-5.479l-2.396-0.135C258.979,0.094,257.5,0,256,0
				C184.542,0,115.75,30.427,67.229,83.49c-3.125,3.427-3.688,8.479-1.375,12.51L136.125,218.375z"/>
		</g>
	</g>
</g>
<g>
</g>
<g>
</g>
<g>
</g>
<g>
</g>
<g>
</g>
<g>
</g>
<g>
</g>
<g>
</g>
<g>
</g>
<g>
</g>
<g>
</g>
<g>
</g>
<g>
</g>
<g>
</g>
<g>
</g>
</svg>
